<?xml version="1.0" encoding="UTF-8" standalone="no"?>
<!-- Created with Inkscape (http://www.inkscape.org/) -->

<svg xmlns:dc="http://purl.org/dc/elements/1.1/" xmlns:cc="http://creativecommons.org/ns#" xmlns:rdf="http://www.w3.org/1999/02/22-rdf-syntax-ns#" xmlns:svg="http://www.w3.org/2000/svg" xmlns="http://www.w3.org/2000/svg" xmlns:sodipodi="http://sodipodi.sourceforge.net/DTD/sodipodi-0.dtd" xmlns:inkscape="http://www.inkscape.org/namespaces/inkscape" width="64" height="64" viewBox="0 0 16.933333 16.933333" version="1.1" id="svg8" inkscape:version="0.92.5 (2060ec1f9f, 2020-04-08)" sodipodi:docname="contentdroplets-watchlist-icon.svg">
  <defs id="defs2">
    <marker inkscape:stockid="Arrow1Lstart" orient="auto" refY="0.0" refX="0.0" id="marker1178" style="overflow:visible" inkscape:isstock="true">
      <path id="path1176" d="M 0.0,0.0 L 5.0,-5.0 L -12.5,0.0 L 5.0,5.0 L 0.0,0.0 z " style="fill-rule:evenodd;stroke:black;stroke-width:1pt;stroke-opacity:1" transform="scale(0.8) translate(12.5,0)" />
    </marker>
    <marker inkscape:stockid="Arrow1Lstart" orient="auto" refY="0.0" refX="0.0" id="Arrow1Lstart" style="overflow:visible" inkscape:isstock="true">
      <path id="path900" d="M 0.0,0.0 L 5.0,-5.0 L -12.5,0.0 L 5.0,5.0 L 0.0,0.0 z " style="fill-rule:evenodd;stroke:black;stroke-width:1pt;stroke-opacity:1" transform="scale(0.8) translate(12.5,0)" />
    </marker>
  </defs>
  <sodipodi:namedview id="base" pagecolor="#ffffff" bordercolor="#666666" borderopacity="1.0" inkscape:pageopacity="0.0" inkscape:pageshadow="2" inkscape:zoom="10" inkscape:cx="33.599028" inkscape:cy="34.475951" inkscape:document-units="px" inkscape:current-layer="g833" showgrid="false" units="px" width="64px" inkscape:pagecheckerboard="false" inkscape:snap-text-baseline="false" showguides="true" inkscape:guide-bbox="true" inkscape:window-width="1920" inkscape:window-height="1009" inkscape:window-x="0" inkscape:window-y="0" inkscape:window-maximized="1">
    <sodipodi:guide position="8.4666665,22.749442" orientation="1,0" id="guide890" inkscape:locked="false" inkscape:label="" inkscape:color="rgb(0,0,255)" />
    <sodipodi:guide position="1.905,8.4666665" orientation="0,1" id="guide892" inkscape:locked="false" inkscape:label="" inkscape:color="rgb(0,0,255)" />
    <sodipodi:guide position="3.5671502,6.1539247" orientation="1,0" id="guide894" inkscape:locked="false" />
    <sodipodi:guide position="13.429966,4.3703496" orientation="1,0" id="guide896" inkscape:locked="false" />
    <sodipodi:guide position="7.9512683,10.664054" orientation="1,0" id="guide1887" inkscape:locked="false" />
    <sodipodi:guide position="8.9989648,9.3357244" orientation="1,0" id="guide1889" inkscape:locked="false" />
    <sodipodi:guide position="10.514383,15.416106" orientation="0,1" id="guide1909" inkscape:locked="false" />
    <sodipodi:guide position="8.9989648,2.3547916" orientation="0,1" id="guide1911" inkscape:locked="false" />
    <sodipodi:guide position="0.92604166,14.47271" orientation="0,1" id="guide1915" inkscape:locked="false" />
  </sodipodi:namedview>
  <metadata id="metadata5">
    <rdf:RDF>
      <cc:Work rdf:about="">
        <dc:format>image/svg+xml</dc:format>
        <dc:type rdf:resource="http://purl.org/dc/dcmitype/StillImage" />
        <dc:title />
      </cc:Work>
    </rdf:RDF>
  </metadata>
  <g inkscape:label="Ebene 1" inkscape:groupmode="layer" id="layer1" transform="translate(0,-280.06666)">
    <g id="g861" transform="translate(0,3e-6)" />
    <g id="g872" transform="translate(-0.36987244,0.16524316)">
      <g style="stroke-width:1.08401775" id="g4587-6-36" transform="matrix(0.92249414,0,0,0.92249414,3.6730698,20.446052)" />
      <g id="g903" transform="translate(-1.2070457,-0.03366909)">
        <g transform="matrix(0.92249414,0,0,0.92249414,4.8221792,21.122091)" id="g4587-6-3-3" style="stroke-width:1.08401775">
          <path transform="translate(0,-5.1118766e-6)" style="opacity:1;fill:white;fill-opacity:1;stroke:none;stroke-width:0.80881274;stroke-linecap:round;stroke-linejoin:round;stroke-miterlimit:4;stroke-dasharray:none;stroke-dashoffset:74.26771545;stroke-opacity:1;paint-order:fill markers stroke" d="m 4.3451731,282.52728 5.2912021,-0.0187 c 0.3500595,-10e-4 3.1107888,2.50063 3.1056718,3.18986 l -0.04677,6.30033 c -0.0051,0.68923 -0.705081,1.24414 -1.580899,1.24414 H 5.1215911 c -0.8758182,0 -1.5808993,-0.55489 -1.5808993,-1.24414 v -8.22734 c 0,-0.68925 -0.071331,-1.24104 0.8044813,-1.24414 z" id="rect858-7-5-6" inkscape:connector-curvature="0" sodipodi:nodetypes="sssssssss" />
          <path transform="translate(0,-5.1118766e-6)" inkscape:connector-curvature="0" class="st2" d="m 12.483608,284.69686 c 0.105833,0.10583 0.211666,0.26458 0.291041,0.47625 0.07937,0.18521 0.132292,0.37042 0.132292,0.52917 v 7.11729 c 0,0.15875 -0.05292,0.3175 -0.185208,0.42333 -0.105833,0.10584 -0.264583,0.18521 -0.423333,0.18521 H 3.9904835 c -0.15875,0 -0.3175,-0.0529 -0.4233333,-0.18521 -0.1058333,-0.10583 -0.1852083,-0.26458 -0.1852083,-0.42333 v -9.86896 c 0,-0.15875 0.052917,-0.3175 0.1852083,-0.42333 0.1058333,-0.10584 0.2645833,-0.18521 0.4233333,-0.18521 h 5.5297916 c 0.15875,0 0.3439583,0.0529 0.5291659,0.13229 0.211667,0.0794 0.370417,0.18521 0.47625,0.29104 z m -0.370417,1.61396 H 9.5467334 c -0.15875,0 -0.3174999,-0.0529 -0.4233333,-0.18521 -0.1058333,-0.10583 -0.1852083,-0.26458 -0.1852083,-0.42333 v -2.56646 h -4.7625 v 9.49854 h 7.9110412 v -6.32354 z m -2.3812492,-3.12208 v 2.32833 h 2.3283332 c -0.05292,-0.13229 -0.07937,-0.21167 -0.132291,-0.26458 l -1.9314585,-1.93146 c -0.05292,-0.0529 -0.1322921,-0.0794 -0.2645837,-0.13229 z" id="path8-5-6-7" style="fill:#94c11f;fill-opacity:1;stroke:none;stroke-width:0.28681302;stroke-opacity:1" sodipodi:nodetypes="ccsscsscsscssccccscscccccccccccc" />
        </g>
        <g transform="matrix(0.92249413,0,0,0.92249413,2.2837833,23.113282)" id="g4587-6-3" style="stroke-width:1.08401775">
          <path transform="translate(0,-5.1118766e-6)" style="opacity:1;fill:white;fill-opacity:1;stroke:none;stroke-width:0.80881274;stroke-linecap:round;stroke-linejoin:round;stroke-miterlimit:4;stroke-dasharray:none;stroke-dashoffset:74.26771545;stroke-opacity:1;paint-order:fill markers stroke" d="m 4.3451731,282.52728 5.2912021,-0.0187 c 0.3500595,-10e-4 3.1107888,2.50063 3.1056718,3.18986 l -0.04677,6.30033 c -0.0051,0.68923 -0.705081,1.24414 -1.580899,1.24414 H 5.1215911 c -0.8758182,0 -1.5808993,-0.55489 -1.5808993,-1.24414 v -8.22734 c 0,-0.68925 -0.071331,-1.24104 0.8044813,-1.24414 z" id="rect858-7-5" inkscape:connector-curvature="0" sodipodi:nodetypes="sssssssss" />
          <path transform="translate(0,-5.1118766e-6)" inkscape:connector-curvature="0" class="st2" d="m 12.483608,284.69686 c 0.105833,0.10583 0.211666,0.26458 0.291041,0.47625 0.07937,0.18521 0.132292,0.37042 0.132292,0.52917 v 7.11729 c 0,0.15875 -0.05292,0.3175 -0.185208,0.42333 -0.105833,0.10584 -0.264583,0.18521 -0.423333,0.18521 H 3.9904835 c -0.15875,0 -0.3175,-0.0529 -0.4233333,-0.18521 -0.1058333,-0.10583 -0.1852083,-0.26458 -0.1852083,-0.42333 v -9.86896 c 0,-0.15875 0.052917,-0.3175 0.1852083,-0.42333 0.1058333,-0.10584 0.2645833,-0.18521 0.4233333,-0.18521 h 5.5297916 c 0.15875,0 0.3439583,0.0529 0.5291659,0.13229 0.211667,0.0794 0.370417,0.18521 0.47625,0.29104 z m -0.370417,1.61396 H 9.5467334 c -0.15875,0 -0.3174999,-0.0529 -0.4233333,-0.18521 -0.1058333,-0.10583 -0.1852083,-0.26458 -0.1852083,-0.42333 v -2.56646 h -4.7625 v 9.49854 h 7.9110412 v -6.32354 z m -2.3812492,-3.12208 v 2.32833 h 2.3283332 c -0.05292,-0.13229 -0.07937,-0.21167 -0.132291,-0.26458 l -1.9314585,-1.93146 c -0.05292,-0.0529 -0.1322921,-0.0794 -0.2645837,-0.13229 z" id="path8-5-6" style="fill:#94c11f;fill-opacity:1;stroke:none;stroke-width:0.28681302;stroke-opacity:1" sodipodi:nodetypes="ccsscsscsscssccccscscccccccccccc" />
        </g>
      </g>
      <g transform="matrix(0.4145343,0,0,0.4145343,2.7362884,289.03142)" id="g833" style="fill:#3e5389;fill-opacity:1;stroke-width:0.63826644">
        <path sodipodi:type="star" style="opacity:1;fill:#3e5389;fill-opacity:1;stroke:#3e5389;stroke-width:1.91479945;stroke-linecap:round;stroke-linejoin:round;stroke-miterlimit:4;stroke-dasharray:none;stroke-dashoffset:0;stroke-opacity:1;paint-order:fill markers stroke" id="path865" sodipodi:sides="5" sodipodi:cx="8.3410177" sodipodi:cy="6.4592222" sodipodi:r1="10.292395" sodipodi:r2="5.1461973" sodipodi:arg1="0.95378832" sodipodi:arg2="1.5821069" inkscape:flatsided="false" inkscape:rounded="0" inkscape:randomized="0" d="M 14.296171,14.853836 8.2828125,11.60509 2.1975093,14.716988 3.4290199,7.9940266 -1.4110325,3.1681885 5.3634413,2.2619154 8.4574276,-3.832514 l 2.9553444,6.1628537 6.752241,1.0592736 -4.94797,4.7151262 z" inkscape:transform-center-x="0.88966773" inkscape:transform-center-y="-0.19897813" />
      </g>
    </g>
  </g>
  <style id="style817" type="text/css">
	.st0{fill:#FFFFFF;}
	.st1{fill:none;}
	.st2{fill:#3E5389;}
</style>
</svg>
